<?xml version="1.0" encoding="utf-8"?>
<!-- Generator: Adobe Illustrator 26.0.0, SVG Export Plug-In . SVG Version: 6.00 Build 0)  -->
<svg version="1.1" id="Слой_1" xmlns="http://www.w3.org/2000/svg" xmlns:xlink="http://www.w3.org/1999/xlink" x="0px" y="0px"
	 viewBox="0 0 220.3 40" style="enable-background:new 0 0 220.3 40;" xml:space="preserve">
<style type="text/css">
	.st0{fill:#5733D1;}
	.st1{fill:#00EBB0;}
</style>
<path class="st0" d="M4.6,20.1c1.2-0.4,3-0.9,4.9-1.2c2.2-0.3,4.3-0.1,5.4,0.7c1.7,1.1,1.4,3.3,1.4,3.3h-4.9c-3.9,0-6.8,0.7-8.7,2.1
	C0.9,26.4,0,28.5,0,31c0,1.6,0.4,3.5,1.2,4.8C2,37,3.2,38,4.7,38.7s3.3,1,5.4,1c4.9,0,6.5-2.7,6.5-2.7v2.3h7V24c0-4-0.9-7-3-9
	c-2.2-2-5.1-3.1-9.6-3c-3.9,0.2-7.4,1.3-9,1.9L4.6,20.1z M16.4,30.5c0,0-0.4,3.2-4.4,3.2c-1.4,0-2.4-0.3-3.2-0.8s-1.2-1.2-1.2-2.1
	c0-1.9,1.6-2.8,4.8-2.8h4C16.4,28,16.4,30.5,16.4,30.5z"/>
<path class="st0" d="M48.1,26.7c-1-1.2-2.1-2.1-3.5-2.6c-1.3-0.5-2.6-0.9-4-1.2c-1.3-0.3-2.4-0.7-3.2-1.1c-1.1-0.5-1.1-1.1-1.1-1.3
	c0-0.5,0.2-0.9,0.7-1.2c0.5-0.3,1.1-0.5,1.9-0.5c1.8,0,3,0.8,3.7,2.4l0.2,0.4l6.4-3.5L49,17.7c-1-1.8-2.4-3.2-4.2-4.2S41,12,38.9,12
	c-2.9,0-5.3,0.8-7.2,2.3c-2,1.5-3,3.7-3,6.3c0,1.8,0.5,3.3,1.5,4.5c0.9,1.2,2.1,2,3.5,2.6c1.3,0.5,2.6,1,4,1.3
	c1.3,0.3,2.4,0.7,3.2,1.1c1.1,0.5,1.1,1.1,1.1,1.3c0,0.4,0,1.8-3.1,1.8c-2.4,0-3.9-1-4.6-3l-0.2-0.5l-6.5,3.7l0.2,0.4
	c2,4.2,5.7,6.4,11.2,6.4c3,0,5.6-0.7,7.6-2.2c2.1-1.5,3.1-3.7,3.1-6.4C49.6,29.5,49.1,28,48.1,26.7z"/>
<path class="st0" d="M71.2,20v-7.2H53.4V20h4.5v10.3c0,3.7,1,6.2,3,7.7c1.4,1.1,3.6,1.6,6.4,1.6c1.1,0,2.2-0.1,3.5-0.2h0.4v-6.8
	h-0.4c-1.2,0.1-2.3,0.1-3.1,0c-0.8,0-1.3-0.2-1.7-0.6c-0.4-0.3-0.5-0.9-0.5-1.6V20H71.2z"/>
<path class="st0" d="M92,12.2c-1.8,0-3.5,0.4-5,1.3c-1,0.6-1.8,1.3-2.4,2.3v-3.1h-7.5v26.5h7.5V26.6c0-2.3,0.7-3.9,2.2-4.9
	s3.2-1.4,5.1-1.2l0.5,0.1v-8.3H92V12.2z"/>
<path class="st1" d="M61.9,10.1c-1.4,0-2.5-0.5-3.5-1.5s-1.5-2.2-1.5-3.5c0-1.4,0.5-2.5,1.5-3.5s2.2-1.5,3.5-1.5
	c1.4,0,2.6,0.5,3.6,1.5S67,3.8,67,5.1c0,1.4-0.5,2.5-1.5,3.5S63.3,10.1,61.9,10.1z"/>
<path class="st0" d="M109.1,39.7c-6.2,0-11.3-5.1-11.3-11.3V12.7h7.7v15.6c0,2,1.6,3.7,3.7,3.7c2,0,3.7-1.6,3.7-3.7V12.7h7.7v15.6
	C120.4,34.6,115.4,39.7,109.1,39.7z"/>
<path class="st0" d="M152,12.4c-2.9,0-5.5,1.1-7.5,2.9c-2-1.8-4.6-2.9-7.5-2.9c-6.2,0-11.3,5.1-11.3,11.3v15.6h7.7V23.7
	c0-2,1.6-3.7,3.7-3.7c2,0,3.7,1.6,3.7,3.7v15.6h7.7V23.7c0-2,1.6-3.7,3.7-3.7c2,0,3.7,1.6,3.7,3.7v15.6h7.7V23.7
	C163.3,17.4,158.3,12.4,152,12.4z"/>
<g>
	<path class="st1" d="M185.4,39.2c-0.9,0-1.6-0.2-1.9-0.4c-0.3-0.3-0.6-0.6-0.8-1c-0.1-0.4-0.2-1-0.2-1.5V9.5c0-0.5,0.1-1,0.2-1.4
		c0.1-0.4,0.3-0.8,0.8-1s1-0.4,2-0.4c0.9,0,1.5,0.2,1.9,0.4c0.3,0.3,0.6,0.6,0.8,1c0.1,0.4,0.2,0.9,0.2,1.5v26.8
		c0,0.5-0.1,1-0.2,1.4s-0.3,0.8-0.8,1C186.9,39,186.3,39.2,185.4,39.2z"/>
	<path class="st1" d="M195.9,39.1c-0.9,0-1.5-0.2-1.8-0.4c-0.3-0.3-0.7-0.6-0.8-1c-0.2-0.4-0.2-0.9-0.2-1.4V9.5c0-0.5,0.1-1,0.2-1.4
		c0.1-0.4,0.3-0.8,0.8-1c0.4-0.3,1-0.4,1.9-0.4l8.7,0.1c2.2,0,4.3,0.4,6.2,1.2s3.5,1.9,4.9,3.3s2.5,3.1,3.3,5.1
		c0.8,2,1.1,4.2,1.1,6.4c0,2.4-0.3,4.7-1.1,6.7c-0.8,2-1.9,3.7-3.3,5.2s-3,2.6-5,3.4c-1.9,0.8-4.1,1.2-6.3,1.2
		C204.5,39.1,195.9,39.1,195.9,39.1z M198.7,33.5h6c2,0,3.6-0.4,5.2-1.3c1.5-0.9,2.7-2.1,3.5-3.7c0.9-1.6,1.3-3.5,1.3-5.5
		s-0.4-4-1.3-5.5c-0.9-1.6-2-2.9-3.5-3.7c-1.5-0.9-3.2-1.3-5.2-1.3h-5.9L198.7,33.5L198.7,33.5z"/>
</g>
</svg>
