<?xml version="1.0" encoding="utf-8"?>
<!-- Generator: Adobe Illustrator 26.0.0, SVG Export Plug-In . SVG Version: 6.00 Build 0)  -->
<svg version="1.1" id="Слой_1" xmlns="http://www.w3.org/2000/svg" xmlns:xlink="http://www.w3.org/1999/xlink" x="0px" y="0px"
	 viewBox="0 0 512 512" enable-background="new 0 0 512 512" xml:space="preserve">
<g>
	<linearGradient id="SVGID_1_" gradientUnits="userSpaceOnUse" x1="40.838" y1="256" x2="471.162" y2="256">
		<stop  offset="0" style="stop-color:#A46B23"/>
		<stop  offset="0.5146" style="stop-color:#FFE485"/>
		<stop  offset="1" style="stop-color:#945612"/>
	</linearGradient>
	<circle fill="url(#SVGID_1_)" stroke="#8C5111" stroke-width="3" stroke-miterlimit="10" cx="256" cy="256" r="215.2"/>
	
		<linearGradient id="SVGID_00000136407052634840633370000012429590637297124744_" gradientUnits="userSpaceOnUse" x1="128.4444" y1="128.4444" x2="393.0446" y2="393.0446">
		<stop  offset="0" style="stop-color:#A46B23"/>
		<stop  offset="0.5146" style="stop-color:#FFE485"/>
		<stop  offset="1" style="stop-color:#945612"/>
	</linearGradient>
	
		<circle fill="url(#SVGID_00000136407052634840633370000012429590637297124744_)" stroke="#8C5111" stroke-width="3" stroke-miterlimit="10" cx="256" cy="256" r="187.1"/>
	<path fill="#965E16" d="M313.9,257.1v-46.7H199.1v46.7H228v66.3c0,23.6,6.5,40.3,19.2,49.7c9.3,6.8,23,10.2,41.5,10.2
		c6.9,0,14.4-0.5,22.7-1.4l2.4-0.3v-44.2l-2.9,0.2c-8,0.4-14.9,0.5-20.3,0.2c-4.9-0.3-8.5-1.6-10.9-3.8c-2.3-2.1-3.4-5.7-3.4-10.6
		v-66.3H313.9z"/>
	<path fill="#965E16" d="M253.6,193.1c-8.7,0-16.3-3.2-22.7-9.6c-6.4-6.4-9.6-14-9.6-22.7c0-8.7,3.2-16.4,9.6-22.9
		c6.4-6.5,14-9.8,22.7-9.8c9,0,16.7,3.3,23.1,9.8c6.4,6.6,9.6,14.2,9.6,22.9c0,8.7-3.2,16.3-9.6,22.7
		C270.4,189.9,262.7,193.1,253.6,193.1z"/>
</g>
</svg>
