<svg width="164" height="40" viewBox="0 0 164 40" fill="none" xmlns="http://www.w3.org/2000/svg"><path d="M4.63354 20.055C5.79333 19.6734 7.66922 19.1207 9.56966 18.8337C11.7267 18.508 13.823 18.7708 14.9636 19.5436C16.6402 20.6794 16.3687 22.8369 16.3687 22.8369H11.5186C7.59555 22.8369 4.69563 23.5522 2.81806 24.9815C0.939353 26.4109 0 28.4728 0 30.9665C0 32.5288 0.399112 34.4939 1.19734 35.7231C1.99471 36.9538 3.14915 37.9171 4.66261 38.6151C6.17495 39.3134 7.96164 39.6626 10.023 39.6626C14.9275 39.6626 16.4985 36.9922 16.4985 36.9922V39.2635H23.4531V23.9558C23.4531 19.9667 22.5572 16.9338 20.438 15.0052C18.2355 13.0011 15.3647 11.858 10.8649 12.0392C6.95765 12.1964 3.48277 13.3139 1.88407 13.908L4.63354 20.055ZM16.3687 30.4779C16.3687 30.4779 16.0003 33.7078 11.9677 33.7078C10.6036 33.7078 9.53212 33.4495 8.75083 32.9339C7.96954 32.4179 7.57946 31.7168 7.57946 30.8319C7.57946 28.9732 9.17478 28.044 12.3657 28.044H16.3687V30.4779Z" fill="#5733D1"></path><path d="M48.1455 26.728C47.1929 25.5069 46.0159 24.6235 44.648 24.1019C43.3375 23.602 42.0087 23.1825 40.6964 22.8529C39.4274 22.5362 38.3393 22.1658 37.4615 21.7515C36.3446 21.2248 36.3446 20.6544 36.3446 20.4667C36.3446 19.9566 36.5538 19.5787 37.0023 19.2789C37.494 18.9518 38.1327 18.7855 38.8985 18.7855C40.6524 18.7855 41.8709 19.5629 42.6234 21.1607L42.8151 21.5694L49.2418 18.0638L49.0276 17.6876C47.9984 15.8803 46.5784 14.4693 44.805 13.4926C43.0361 12.5208 41.0493 12.0283 38.8985 12.0283C36.0398 12.0283 33.6104 12.7932 31.6769 14.3007C29.7101 15.8345 28.7135 17.9599 28.7135 20.6202C28.7135 22.3917 29.2035 23.8907 30.1702 25.0751C31.1186 26.2397 32.2922 27.1034 33.6569 27.6425C34.9709 28.1616 36.3003 28.5982 37.6085 28.9423C38.8776 29.2762 39.9679 29.6555 40.8483 30.0707C41.9655 30.5983 41.9655 31.169 41.9655 31.3556C41.9655 31.7968 41.9655 33.1397 38.8468 33.1397C36.4242 33.1397 34.9093 32.1422 34.2158 30.0899L34.0513 29.6042L27.5068 33.2851L27.6753 33.643C29.6602 37.8613 33.4184 40 38.8468 40C41.8684 40 44.4321 39.2557 46.4661 37.7874C48.5432 36.2897 49.5963 34.1254 49.5963 31.3556C49.5963 29.5218 49.108 27.9654 48.1455 26.728Z" fill="#5733D1"></path><path d="M71.1818 19.967V12.7471H53.4326V19.967H57.9008V30.2259C57.9008 33.88 58.9016 36.4663 60.874 37.914C62.3141 38.9705 64.4322 39.4927 67.2991 39.4927C68.3629 39.4927 69.53 39.4213 70.8039 39.2776L71.1818 39.2353V32.3959L70.7333 32.4207C69.4916 32.4879 68.4352 32.4989 67.598 32.4467C66.8455 32.401 66.2776 32.2056 65.9087 31.8652C65.5559 31.5395 65.3772 30.9883 65.3772 30.2259V19.967H71.1818Z" fill="#5733D1"></path><path d="M91.9773 12.2332C90.1635 12.2332 88.4931 12.6668 87.0133 13.5232C86.0265 14.0936 85.2175 14.8577 84.5946 15.8052V12.7472H77.1182V39.2803H84.5946V26.579C84.5946 24.2436 85.3141 22.6291 86.7939 21.6414C88.293 20.6423 90.0207 20.2553 91.9274 20.4771L92.4027 20.5336V12.2332H91.9773Z" fill="#5733D1"></path><path d="M61.868 10.0688C60.5165 10.0688 59.3451 9.5732 58.3539 8.57994C57.3609 7.58893 56.8652 6.41757 56.8652 5.06612C56.8652 3.71552 57.3609 2.53286 58.3539 1.51927C59.3451 0.506813 60.5165 -0.000121117 61.868 -0.000121117C63.2615 -0.000121117 64.4534 0.506813 65.4464 1.51927C66.4377 2.53286 66.9342 3.71552 66.9342 5.06612C66.9342 6.41757 66.4377 7.58893 65.4464 8.57994C64.4534 9.5732 63.2615 10.0688 61.868 10.0688Z" fill="#00EBB0"></path><path d="M109.112 39.6597C102.871 39.6597 97.7939 34.5819 97.7939 28.3411V12.747H105.448V28.3411C105.448 30.361 107.092 32.0054 109.112 32.0054C111.133 32.0054 112.777 30.361 112.777 28.3411V12.747H120.431V28.3411C120.431 34.5819 115.354 39.6597 109.112 39.6597Z" fill="#5733D1"></path><path d="M152.015 12.3691C149.141 12.3691 146.522 13.4546 144.524 15.2261C142.526 13.4546 139.906 12.3691 137.032 12.3691C130.791 12.3691 125.714 17.4469 125.714 23.6876V39.2817H133.368V23.6876C133.368 21.6677 135.012 20.0233 137.032 20.0233C139.053 20.0233 140.697 21.6677 140.697 23.6876V39.2817H148.351V23.6876C148.351 21.6677 149.994 20.0233 152.015 20.0233C154.035 20.0233 155.679 21.6677 155.679 23.6876V39.2817H163.333V23.6876C163.333 17.4469 158.256 12.3691 152.015 12.3691Z" fill="#5733D1"></path></svg>