<?xml version="1.0" encoding="utf-8"?>
<!-- Generator: Adobe Illustrator 26.0.0, SVG Export Plug-In . SVG Version: 6.00 Build 0)  -->
<svg version="1.0" id="Слой_1" xmlns="http://www.w3.org/2000/svg" xmlns:xlink="http://www.w3.org/1999/xlink" x="0px" y="0px"
	 width="131.7px" height="40px" viewBox="0 0 131.7 40" enable-background="new 0 0 131.7 40" xml:space="preserve">
<g>
	<path fill="#4B4797" d="M21.7,6H8.3C3.7,6,0,9.7,0,14.3v13.4C0,32.3,3.7,36,8.3,36h13.4c4.6,0,8.3-3.7,8.3-8.3V14.3
		C29.9,9.7,26.2,6,21.7,6z"/>
</g>
<path fill="#FFFFFF" d="M21.5,16.1H11.1c-0.7,0-0.8-0.8-0.2-1h10.6c0.2,0,0.3,0,0.5,0c-0.2-1.5-1.6-2.5-3-2.3c0,0-0.1,0-0.1,0
	L8.5,14.6c-0.1,0-0.3,0-0.4,0.1h0c-0.1,0-0.1,0-0.2,0c-1.6,0.4-2,1.8-2,2.7v1c0,0.1,0,0.2,0,0.3v7.8c0,1.4,1.2,2.6,2.6,2.6h13.1
	c1.4,0,2.6-1.2,2.6-2.6v-7.8C24.2,17.2,23,16.1,21.5,16.1z M19.6,23.9c-0.7,0-1.3-0.6-1.3-1.3s0.6-1.3,1.3-1.3s1.3,0.6,1.3,1.3
	S20.3,23.9,19.6,23.9z"/>
<g>
	<path fill="#4B4797" d="M64.2,15.9l-4.8,16.2H54l-2.5-9.5c-0.2-0.6-0.3-1.3-0.3-2.1h-0.1c-0.1,0.8-0.2,1.5-0.3,2l-2.6,9.6h-5.3
		l-4.7-16.2h5.2l2.3,10.6c0.1,0.5,0.2,1.1,0.2,1.8h0.1c0.1-0.7,0.2-1.4,0.3-1.9l2.9-10.5h4.9l2.6,10.6c0.1,0.3,0.1,0.9,0.2,1.8H57
		c0.1-0.6,0.1-1.2,0.3-1.8l2.2-10.6H64.2z"/>
	<path fill="#4B4797" d="M89.7,32.2h-5.1v-24h5.1V32.2z"/>
	<path fill="#4B4797" d="M99.1,32.2H94v-24h5.1V32.2z"/>
	<path fill="#4B4797" d="M118.4,25.5h-10.9c0.2,2.4,1.7,3.5,4.6,3.5c1.8,0,3.4-0.4,4.8-1.3v3.6c-1.5,0.8-3.5,1.2-6,1.2
		c-2.7,0-4.8-0.7-6.3-2.2c-1.5-1.5-2.2-3.5-2.2-6.1c0-2.7,0.8-4.8,2.4-6.4c1.6-1.6,3.6-2.4,5.9-2.4c2.4,0,4.3,0.7,5.6,2.1
		c1.3,1.4,2,3.3,2,5.7V25.5z M113.7,22.4c0-2.3-1-3.5-2.9-3.5c-0.8,0-1.5,0.3-2.1,1s-1,1.5-1.1,2.5H113.7z"/>
</g>
<path fill="#62BC9D" d="M126.2,14c-0.7,0-1.2-0.2-1.8-0.8c-0.5-0.5-0.8-1.1-0.8-1.8c0-0.7,0.2-1.2,0.8-1.8c0.5-0.5,1.1-0.8,1.8-0.8
	c0.7,0,1.3,0.2,1.8,0.8c0.5,0.5,0.8,1.1,0.8,1.8c0,0.7-0.2,1.2-0.8,1.8C127.5,13.7,126.9,14,126.2,14z"/>
<path fill="#4B4797" d="M70.1,20.6c0.7-0.2,1.8-0.5,3-0.7c1.3-0.2,2.6-0.1,3.3,0.4c1,0.7,0.9,2,0.9,2h-3c-2.4,0-4.1,0.4-5.3,1.3
	c-1.1,0.9-1.6,2.1-1.6,3.6c0,1,0.2,2.1,0.7,2.9c0.5,0.7,1.2,1.3,2.1,1.8c0.9,0.4,2,0.6,3.3,0.6c3,0,3.9-1.6,3.9-1.6v1.4h4.3V23
	c0-2.4-0.5-4.3-1.8-5.5c-1.3-1.2-3.1-1.9-5.8-1.8c-2.4,0.1-4.5,0.8-5.5,1.2L70.1,20.6z M77.2,27c0,0-0.2,1.9-2.7,1.9
	c-0.9,0-1.5-0.2-1.9-0.5c-0.5-0.3-0.7-0.7-0.7-1.3c0-1.2,1-1.7,2.9-1.7h2.4C77.2,25.4,77.2,27,77.2,27z"/>
<path fill="#4B4797" d="M131.7,20.4v-4.5h-10.9v4.4h2.8v6.4c0,2.2,0.6,3.9,1.8,4.7c0.9,0.7,2.2,1,4,1c0.7,0,1.4,0,2.1-0.1h0.2V28
	h-0.3c-0.8,0-1.4,0.1-1.9,0c-0.5,0-0.8-0.2-1.1-0.4c-0.2-0.2-0.3-0.6-0.3-1v-6.4L131.7,20.4L131.7,20.4z"/>
</svg>
